# xmcd CD database file
#
# Track frame offsets:
#	220
#	8315
#	16328
#	27171
#	36106
#	48100
#	58439
#	67993
#	77880
#	88062
#	97926
#	106412
#	118126
#	127526
#	138584
#	148474
#	157398
#	166666
#	176920
#	188418
#	198409
#	208398
#	217750
#	227911
#	238321
#	248778
#	260390
#	270853
#	279576
#	291418
#	302755
#	313726
#	322613
#	332043
#
# Disc length: 4562 seconds
#
# Revision: 0
# Processed by: cddbd v1.5.2PL0 Copyright (c) Steve Scherf et al.
# Submitted via: CDex 2.16
#
DISCID=e711d022
DTITLE=Various Artist - Just Around Bakersfield
DYEAR=1900
DGENRE=Country
TTITLE0=Bill Carter -  I Used To Love You
TTITLE1="Fuzzy" Owen -  Yer Fer Me
TTITLE2=George Weston -  Hold Still Baby
TTITLE3="Cousin'" Herb Henson -  Walkin' On Easy Street
TTITLE4=Duke Dickson - Walkin' Shoes
TTITLE5=Wally Lewis - Kathleen
TTITLE6=George Rich - Drive Away Blues
TTITLE7=George Weston -  I Need You Baby
TTITLE8=Lynn Billingsley - Childhood Boogie
TTITLE9=The Three Notes - I've Been Thinking It Over
TTITLE10=Bill Carter - I Wanna Feel Good
TTITLE11=Gene Martin - I Wouldn't Give A Nickel
TTITLE12=Custer Bottoms - Stood Up Blues
TTITLE13="Cousin'" Herb Henson - Loose My Mind
TTITLE14=Bill Brock - Why Must I Be The One
TTITLE15=Sid Silver - Bumble Rumble
TTITLE16=Phil Brown - You're A Luxury
TTITLE17=Corky Jones - Hot Dog
TTITLE18=Wes Buchanan - Only Fools
TTITLE19=Buck Owens - There Goes My Love
TTITLE20=Corky Jones - Rhythm And Booze
TTITLE21=Cliff Crofford - A Night For Love
TTITLE22=Cliff Crofford - There Ain't Nothing Happen' To Me
TTITLE23=Duke Dickson - Is You Is, Or Is You Ain't
TTITLE24=Johnny Taylor - Mixed Up Rhythm and Blues
TTITLE25=Kenny Brown - Baby Baby Baby
TTITLE26=Louise Duncan - Where Ever You Are
TTITLE27=Wes Buchanan - Give Some Love My Way
TTITLE28=Kenny Brown - Throw A Little Wood On The Fire
TTITLE29=Pauline Parker and Marilyn Kaye - Love Fever
TTITLE30=Ronnie Braham - Puppy Dog Love
TTITLE31=Bill Woods - Phone Me Baby
TTITLE32=Bill Woods - Ask Me No Questions
TTITLE33=Bill Woods - Truck Drivin' Man
EXTD=
EXTT0=
EXTT1=
EXTT2=
EXTT3=
EXTT4=
EXTT5=
EXTT6=
EXTT7=
EXTT8=
EXTT9=
EXTT10=
EXTT11=
EXTT12=
EXTT13=
EXTT14=
EXTT15=
EXTT16=
EXTT17=
EXTT18=
EXTT19=
EXTT20=
EXTT21=
EXTT22=
EXTT23=
EXTT24=
EXTT25=
EXTT26=
EXTT27=
EXTT28=
EXTT29=
EXTT30=
EXTT31=
EXTT32=
EXTT33=
PLAYORDER=
